<svg class="logo-bg" xmlns="http://www.w3.org/2000/svg" viewBox="0 0 141.7 141.7">
    <circle cx="70.535" cy="70.535" r="68.535" stroke="#ffffff" stroke-width="4"  fill="#101e1e" />
    <path fill="#ffffff"
          d="M42.5 93.8c-12.6 0-22.9-10.3-22.9-22.9C19.6 58.3 29.8 48 42.5 48c2.4 0 4.9.4 7.2 1.1 2.5.8 3.9 3.6 3.1 6.1-.8 2.5-3.6 3.9-6.1 3.1-1.3-.4-2.7-.7-4.1-.7-7.3 0-13.2 5.9-13.2 13.2 0 7.3 5.9 13.2 13.2 13.2 6.8 0 10.6-3.6 13.9-12.7l7.2-20.2c.7-1.9 2.5-3.2 4.5-3.2s3.8 1.2 4.6 3.1l8.3 21.5L89.5 51c.7-1.9 2.5-3.1 4.5-3.1h.1c2 0 3.8 1.3 4.5 3.2l12 33.4c.9 2.5-.4 5.3-2.9 6.2-2.5.9-5.3-.4-6.2-2.9l-7.6-21.2-8.2 21c-.7 1.9-2.5 3.1-4.5 3.1s-3.8-1.2-4.5-3.1l-8.1-21-2.8 7.9c-3.3 8.4-8.8 19.3-23.3 19.3"/>
    <circle cx="121" cy="86" r="5.5"   fill="#1657ea" />
</svg>